<mxfile host="app.diagrams.net" agent="Mozilla/5.0 (Windows NT 10.0; Win64; x64; rv:137.0) Gecko/20100101 Firefox/137.0" version="26.2.14">
  <diagram name="Page-1" id="R-5jdmYkVHQdmfrMNXRI">
    <mxGraphModel dx="1892" dy="660" grid="1" gridSize="10" guides="1" tooltips="1" connect="1" arrows="1" fold="1" page="1" pageScale="1" pageWidth="850" pageHeight="1100" math="0" shadow="0">
      <root>
        <mxCell id="0" />
        <mxCell id="1" parent="0" />
        <mxCell id="pt2wWsfCuj9fQBWMHo9L-1" value="" style="verticalLabelPosition=bottom;shadow=0;dashed=0;align=center;html=1;verticalAlign=top;shape=mxgraph.electrical.logic_gates.lowpass_filter;" vertex="1" parent="1">
          <mxGeometry x="80" y="162" width="80" height="76" as="geometry" />
        </mxCell>
        <mxCell id="pt2wWsfCuj9fQBWMHo9L-15" style="edgeStyle=orthogonalEdgeStyle;rounded=0;orthogonalLoop=1;jettySize=auto;html=1;entryX=0;entryY=0.5;entryDx=0;entryDy=0;" edge="1" parent="1" source="pt2wWsfCuj9fQBWMHo9L-2" target="pt2wWsfCuj9fQBWMHo9L-6">
          <mxGeometry relative="1" as="geometry" />
        </mxCell>
        <mxCell id="pt2wWsfCuj9fQBWMHo9L-2" value="" style="verticalLabelPosition=bottom;shadow=0;dashed=0;align=center;html=1;verticalAlign=top;shape=mxgraph.electrical.logic_gates.highpass_filter;" vertex="1" parent="1">
          <mxGeometry x="200" y="162" width="80" height="76" as="geometry" />
        </mxCell>
        <mxCell id="pt2wWsfCuj9fQBWMHo9L-18" style="edgeStyle=orthogonalEdgeStyle;rounded=0;orthogonalLoop=1;jettySize=auto;html=1;" edge="1" parent="1" source="pt2wWsfCuj9fQBWMHo9L-3">
          <mxGeometry relative="1" as="geometry">
            <mxPoint x="679.9999999999998" y="200" as="targetPoint" />
          </mxGeometry>
        </mxCell>
        <mxCell id="pt2wWsfCuj9fQBWMHo9L-3" value="" style="verticalLabelPosition=bottom;shadow=0;dashed=0;align=center;html=1;verticalAlign=top;shape=mxgraph.electrical.logic_gates.lowpass_filter;" vertex="1" parent="1">
          <mxGeometry x="560" y="162" width="80" height="76" as="geometry" />
        </mxCell>
        <mxCell id="pt2wWsfCuj9fQBWMHo9L-5" value="" style="rounded=0;whiteSpace=wrap;html=1;" vertex="1" parent="1">
          <mxGeometry x="440" y="160" width="80" height="80" as="geometry" />
        </mxCell>
        <mxCell id="pt2wWsfCuj9fQBWMHo9L-16" style="edgeStyle=orthogonalEdgeStyle;rounded=0;orthogonalLoop=1;jettySize=auto;html=1;entryX=0;entryY=0.5;entryDx=0;entryDy=0;" edge="1" parent="1" source="pt2wWsfCuj9fQBWMHo9L-6" target="pt2wWsfCuj9fQBWMHo9L-5">
          <mxGeometry relative="1" as="geometry" />
        </mxCell>
        <mxCell id="pt2wWsfCuj9fQBWMHo9L-6" value="" style="triangle;whiteSpace=wrap;html=1;" vertex="1" parent="1">
          <mxGeometry x="320" y="160" width="80" height="80" as="geometry" />
        </mxCell>
        <mxCell id="pt2wWsfCuj9fQBWMHo9L-8" value="" style="endArrow=classic;html=1;rounded=0;" edge="1" parent="1">
          <mxGeometry width="50" height="50" relative="1" as="geometry">
            <mxPoint x="480" y="230" as="sourcePoint" />
            <mxPoint x="480" y="170" as="targetPoint" />
          </mxGeometry>
        </mxCell>
        <mxCell id="pt2wWsfCuj9fQBWMHo9L-9" value="" style="endArrow=classic;html=1;rounded=0;" edge="1" parent="1">
          <mxGeometry width="50" height="50" relative="1" as="geometry">
            <mxPoint x="450" y="200" as="sourcePoint" />
            <mxPoint x="510" y="200" as="targetPoint" />
          </mxGeometry>
        </mxCell>
        <mxCell id="pt2wWsfCuj9fQBWMHo9L-10" value="" style="endArrow=none;html=1;rounded=0;" edge="1" parent="1">
          <mxGeometry width="50" height="50" relative="1" as="geometry">
            <mxPoint x="470" y="210" as="sourcePoint" />
            <mxPoint x="490" y="190" as="targetPoint" />
          </mxGeometry>
        </mxCell>
        <mxCell id="pt2wWsfCuj9fQBWMHo9L-11" value="" style="endArrow=none;html=1;rounded=0;" edge="1" parent="1">
          <mxGeometry width="50" height="50" relative="1" as="geometry">
            <mxPoint x="490" y="190" as="sourcePoint" />
            <mxPoint x="500" y="190" as="targetPoint" />
          </mxGeometry>
        </mxCell>
        <mxCell id="pt2wWsfCuj9fQBWMHo9L-12" value="" style="endArrow=none;html=1;rounded=0;" edge="1" parent="1">
          <mxGeometry width="50" height="50" relative="1" as="geometry">
            <mxPoint x="460" y="210" as="sourcePoint" />
            <mxPoint x="470" y="210" as="targetPoint" />
          </mxGeometry>
        </mxCell>
        <mxCell id="pt2wWsfCuj9fQBWMHo9L-13" value="" style="endArrow=classic;html=1;rounded=0;entryX=0;entryY=0.5;entryDx=0;entryDy=0;entryPerimeter=0;" edge="1" parent="1" target="pt2wWsfCuj9fQBWMHo9L-1">
          <mxGeometry width="50" height="50" relative="1" as="geometry">
            <mxPoint x="40" y="200" as="sourcePoint" />
            <mxPoint x="60" y="200" as="targetPoint" />
          </mxGeometry>
        </mxCell>
        <mxCell id="pt2wWsfCuj9fQBWMHo9L-14" style="edgeStyle=orthogonalEdgeStyle;rounded=0;orthogonalLoop=1;jettySize=auto;html=1;entryX=0;entryY=0.5;entryDx=0;entryDy=0;entryPerimeter=0;" edge="1" parent="1" source="pt2wWsfCuj9fQBWMHo9L-1" target="pt2wWsfCuj9fQBWMHo9L-2">
          <mxGeometry relative="1" as="geometry" />
        </mxCell>
        <mxCell id="pt2wWsfCuj9fQBWMHo9L-17" style="edgeStyle=orthogonalEdgeStyle;rounded=0;orthogonalLoop=1;jettySize=auto;html=1;entryX=0;entryY=0.5;entryDx=0;entryDy=0;entryPerimeter=0;" edge="1" parent="1" source="pt2wWsfCuj9fQBWMHo9L-5" target="pt2wWsfCuj9fQBWMHo9L-3">
          <mxGeometry relative="1" as="geometry" />
        </mxCell>
        <mxCell id="pt2wWsfCuj9fQBWMHo9L-19" value="&lt;div&gt;Anti Aliasing&lt;/div&gt;&lt;div&gt;FIR LP&lt;/div&gt;" style="text;html=1;align=center;verticalAlign=middle;whiteSpace=wrap;rounded=0;" vertex="1" parent="1">
          <mxGeometry x="80" y="240" width="80" height="30" as="geometry" />
        </mxCell>
        <mxCell id="pt2wWsfCuj9fQBWMHo9L-20" value="&lt;div&gt;Equaliser&lt;/div&gt;&lt;div&gt;IIR HP&lt;/div&gt;" style="text;html=1;align=center;verticalAlign=middle;whiteSpace=wrap;rounded=0;" vertex="1" parent="1">
          <mxGeometry x="210" y="240" width="60" height="30" as="geometry" />
        </mxCell>
        <mxCell id="pt2wWsfCuj9fQBWMHo9L-21" value="Drive" style="text;html=1;align=center;verticalAlign=middle;whiteSpace=wrap;rounded=0;" vertex="1" parent="1">
          <mxGeometry x="330" y="240" width="60" height="30" as="geometry" />
        </mxCell>
        <mxCell id="pt2wWsfCuj9fQBWMHo9L-22" value="Static Non-Linearity" style="text;html=1;align=center;verticalAlign=middle;whiteSpace=wrap;rounded=0;" vertex="1" parent="1">
          <mxGeometry x="440" y="240" width="80" height="30" as="geometry" />
        </mxCell>
        <mxCell id="pt2wWsfCuj9fQBWMHo9L-23" value="&lt;div&gt;Equaliser&lt;/div&gt;&lt;div&gt;IIR LP&lt;/div&gt;" style="text;html=1;align=center;verticalAlign=middle;whiteSpace=wrap;rounded=0;" vertex="1" parent="1">
          <mxGeometry x="570" y="240" width="60" height="30" as="geometry" />
        </mxCell>
        <mxCell id="pt2wWsfCuj9fQBWMHo9L-25" value="" style="endArrow=classic;html=1;rounded=0;entryX=0.5;entryY=0;entryDx=0;entryDy=0;" edge="1" parent="1" target="pt2wWsfCuj9fQBWMHo9L-6">
          <mxGeometry width="50" height="50" relative="1" as="geometry">
            <mxPoint x="360" y="120" as="sourcePoint" />
            <mxPoint x="380" y="70" as="targetPoint" />
          </mxGeometry>
        </mxCell>
        <mxCell id="pt2wWsfCuj9fQBWMHo9L-26" value="" style="endArrow=classic;html=1;rounded=0;entryX=0.5;entryY=0;entryDx=0;entryDy=0;" edge="1" parent="1">
          <mxGeometry width="50" height="50" relative="1" as="geometry">
            <mxPoint x="600" y="120" as="sourcePoint" />
            <mxPoint x="599.58" y="160" as="targetPoint" />
          </mxGeometry>
        </mxCell>
        <mxCell id="pt2wWsfCuj9fQBWMHo9L-27" value="" style="endArrow=classic;html=1;rounded=0;entryX=0.5;entryY=0;entryDx=0;entryDy=0;" edge="1" parent="1">
          <mxGeometry width="50" height="50" relative="1" as="geometry">
            <mxPoint x="240" y="120" as="sourcePoint" />
            <mxPoint x="239.58000000000004" y="160" as="targetPoint" />
          </mxGeometry>
        </mxCell>
        <mxCell id="pt2wWsfCuj9fQBWMHo9L-28" value="Cut-off" style="text;html=1;align=center;verticalAlign=middle;whiteSpace=wrap;rounded=0;" vertex="1" parent="1">
          <mxGeometry x="210" y="90" width="60" height="30" as="geometry" />
        </mxCell>
        <mxCell id="pt2wWsfCuj9fQBWMHo9L-29" value="Gain" style="text;html=1;align=center;verticalAlign=middle;whiteSpace=wrap;rounded=0;" vertex="1" parent="1">
          <mxGeometry x="330" y="90" width="60" height="30" as="geometry" />
        </mxCell>
        <mxCell id="pt2wWsfCuj9fQBWMHo9L-30" value="Cut-off" style="text;html=1;align=center;verticalAlign=middle;whiteSpace=wrap;rounded=0;" vertex="1" parent="1">
          <mxGeometry x="570" y="90" width="60" height="30" as="geometry" />
        </mxCell>
        <mxCell id="pt2wWsfCuj9fQBWMHo9L-31" value="Gain" style="text;html=1;align=center;verticalAlign=middle;whiteSpace=wrap;rounded=0;" vertex="1" parent="1">
          <mxGeometry x="690" y="90" width="60" height="30" as="geometry" />
        </mxCell>
        <mxCell id="pt2wWsfCuj9fQBWMHo9L-35" style="edgeStyle=orthogonalEdgeStyle;rounded=0;orthogonalLoop=1;jettySize=auto;html=1;" edge="1" parent="1" source="pt2wWsfCuj9fQBWMHo9L-32">
          <mxGeometry relative="1" as="geometry">
            <mxPoint x="800" y="202" as="targetPoint" />
          </mxGeometry>
        </mxCell>
        <mxCell id="pt2wWsfCuj9fQBWMHo9L-32" value="" style="triangle;whiteSpace=wrap;html=1;" vertex="1" parent="1">
          <mxGeometry x="680" y="162" width="80" height="80" as="geometry" />
        </mxCell>
        <mxCell id="pt2wWsfCuj9fQBWMHo9L-33" value="" style="endArrow=classic;html=1;rounded=0;entryX=0.5;entryY=0;entryDx=0;entryDy=0;exitX=0.5;exitY=1;exitDx=0;exitDy=0;" edge="1" parent="1" source="pt2wWsfCuj9fQBWMHo9L-31" target="pt2wWsfCuj9fQBWMHo9L-32">
          <mxGeometry width="50" height="50" relative="1" as="geometry">
            <mxPoint x="610" y="130" as="sourcePoint" />
            <mxPoint x="609.58" y="170" as="targetPoint" />
          </mxGeometry>
        </mxCell>
        <mxCell id="pt2wWsfCuj9fQBWMHo9L-34" value="Level" style="text;html=1;align=center;verticalAlign=middle;whiteSpace=wrap;rounded=0;" vertex="1" parent="1">
          <mxGeometry x="690" y="240" width="60" height="30" as="geometry" />
        </mxCell>
        <mxCell id="pt2wWsfCuj9fQBWMHo9L-36" value="y[n]" style="text;html=1;align=center;verticalAlign=middle;whiteSpace=wrap;rounded=0;" vertex="1" parent="1">
          <mxGeometry x="800" y="187" width="30" height="30" as="geometry" />
        </mxCell>
        <mxCell id="pt2wWsfCuj9fQBWMHo9L-39" style="edgeStyle=orthogonalEdgeStyle;rounded=0;orthogonalLoop=1;jettySize=auto;html=1;entryX=0;entryY=0.5;entryDx=0;entryDy=0;" edge="1" parent="1" source="pt2wWsfCuj9fQBWMHo9L-37" target="pt2wWsfCuj9fQBWMHo9L-38">
          <mxGeometry relative="1" as="geometry" />
        </mxCell>
        <mxCell id="pt2wWsfCuj9fQBWMHo9L-37" value="x[n]" style="text;html=1;align=center;verticalAlign=middle;whiteSpace=wrap;rounded=0;" vertex="1" parent="1">
          <mxGeometry x="-110" y="185" width="30" height="30" as="geometry" />
        </mxCell>
        <mxCell id="pt2wWsfCuj9fQBWMHo9L-38" value="Noise Gate" style="rounded=0;whiteSpace=wrap;html=1;" vertex="1" parent="1">
          <mxGeometry x="-40" y="160" width="80" height="80" as="geometry" />
        </mxCell>
        <mxCell id="pt2wWsfCuj9fQBWMHo9L-40" value="" style="endArrow=classic;html=1;rounded=0;entryX=0.5;entryY=0;entryDx=0;entryDy=0;" edge="1" parent="1">
          <mxGeometry width="50" height="50" relative="1" as="geometry">
            <mxPoint y="120" as="sourcePoint" />
            <mxPoint y="160" as="targetPoint" />
          </mxGeometry>
        </mxCell>
        <mxCell id="pt2wWsfCuj9fQBWMHo9L-41" value="Threshold" style="text;html=1;align=center;verticalAlign=middle;whiteSpace=wrap;rounded=0;" vertex="1" parent="1">
          <mxGeometry x="-30" y="90" width="60" height="30" as="geometry" />
        </mxCell>
      </root>
    </mxGraphModel>
  </diagram>
</mxfile>
